<svg width="55" height="62" viewBox="0 0 55 62" fill="none" xmlns="http://www.w3.org/2000/svg">
<path d="M14.2082 42.9162C14.2082 42.8971 14.2044 42.8782 14.1969 42.8606C14.1894 42.8429 14.1785 42.8269 14.1647 42.8134C14.1508 42.7999 14.1344 42.7892 14.1164 42.7819C14.0984 42.7746 14.079 42.7708 14.0595 42.7708H0.244902C0.205637 42.7704 0.166986 42.7609 0.13218 42.7433C0.0973744 42.7256 0.067423 42.7003 0.0448278 42.6694C0.0222325 42.6385 0.00764978 42.6028 0.00229725 42.5655C-0.00305528 42.5282 0.000977733 42.4903 0.01406 42.4549L15.2855 0.301407C15.3505 0.124243 15.4787 0.0356609 15.6702 0.0356609C23.5701 -0.00946599 29.9362 -0.435664 37.4514 3.42018C64.5881 17.3443 58.5349 56.5696 28.187 61.5536C24.1293 62.2205 18.9892 61.9397 14.4647 61.9497C14.2835 61.9497 14.1928 61.8628 14.1928 61.689L14.2082 42.9162ZM23.8112 20.3478C25.3297 28.5358 14.7674 33.1838 9.64271 26.6505C9.62397 26.6255 9.59857 26.6063 9.56923 26.5947C9.5399 26.5832 9.50771 26.5798 9.47612 26.585C9.44452 26.5901 9.4147 26.6036 9.38983 26.624C9.36496 26.6443 9.34599 26.6708 9.33492 26.7006L4.88225 39.1306C4.82069 39.301 4.88396 39.3863 5.07205 39.3863H13.9415C14.1125 39.3863 14.198 39.3027 14.198 39.1356V36.067C14.198 35.8564 14.3057 35.7511 14.5212 35.7511H17.1476C17.4041 35.7511 17.5324 35.8764 17.5324 36.1271V58.3145C17.5324 58.495 17.6247 58.5903 17.8094 58.6003C29.1052 59.2321 38.9749 56.4442 45.8284 47.3687C57.8937 31.3988 49.2602 8.67996 29.6797 4.05195C26.4377 3.28312 22.5681 3.06418 18.071 3.39511C17.9137 3.40513 17.8094 3.48202 17.7581 3.62575L13.9825 13.9648C13.97 13.9974 13.9666 14.0327 13.9726 14.067C13.9787 14.1013 13.9941 14.1334 14.0171 14.16C14.0401 14.1865 14.0699 14.2066 14.1035 14.2182C14.1371 14.2297 14.1733 14.2322 14.2082 14.2256C18.7173 13.4434 23.0007 15.9805 23.8112 20.3478ZM20.5025 21.8771C20.5025 20.6975 20.0231 19.5663 19.1698 18.7322C18.3165 17.8981 17.1591 17.4296 15.9524 17.4296C14.7456 17.4296 13.5883 17.8981 12.7349 18.7322C11.8816 19.5663 11.4022 20.6975 11.4022 21.8771C11.4022 23.0566 11.8816 24.1879 12.7349 25.0219C13.5883 25.856 14.7456 26.3246 15.9524 26.3246C17.1591 26.3246 18.3165 25.856 19.1698 25.0219C20.0231 24.1879 20.5025 23.0566 20.5025 21.8771Z" fill="#1C4543"/>
<path d="M9.64272 26.6504C14.7674 33.1837 25.3297 28.5357 23.8112 20.3476C23.0007 15.9804 18.7174 13.4432 14.2083 14.2254C14.1733 14.2321 14.1371 14.2296 14.1035 14.218C14.0699 14.2065 14.0401 14.1864 14.0171 14.1598C13.9941 14.1333 13.9787 14.1012 13.9727 14.0669C13.9666 14.0325 13.97 13.9973 13.9825 13.9647L17.7581 3.62563C17.8094 3.48189 17.9137 3.40501 18.071 3.39498C22.5681 3.06405 26.4377 3.28299 29.6797 4.05182C49.2602 8.67983 57.8937 31.3987 45.8284 47.3686C38.975 56.4441 29.1052 59.232 17.8094 58.6002C17.6247 58.5902 17.5324 58.4949 17.5324 58.3144V36.127C17.5324 35.8763 17.4041 35.7509 17.1476 35.7509H14.5212C14.3057 35.7509 14.198 35.8562 14.198 36.0668V39.1355C14.198 39.3026 14.1125 39.3862 13.9415 39.3862H5.07207C4.88397 39.3862 4.82071 39.3009 4.88227 39.1304L9.33494 26.7005C9.346 26.6707 9.36498 26.6442 9.38985 26.6238C9.41472 26.6035 9.44454 26.59 9.47613 26.5848C9.50773 26.5797 9.53991 26.5831 9.56925 26.5946C9.59859 26.6061 9.62398 26.6254 9.64272 26.6504Z" fill="#FEF8EC"/>
<path d="M15.9522 26.3247C18.4652 26.3247 20.5024 24.3335 20.5024 21.8772C20.5024 19.4209 18.4652 17.4297 15.9522 17.4297C13.4393 17.4297 11.4021 19.4209 11.4021 21.8772C11.4021 24.3335 13.4393 26.3247 15.9522 26.3247Z" fill="#FEF8EC"/>
</svg>
