<svg width="46" height="46" viewBox="0 0 46 46" fill="none" xmlns="http://www.w3.org/2000/svg">
<g clip-path="url(#clip0_788_983)">
<path d="M20.1875 18.3125H25.8125" stroke="black" stroke-width="2" stroke-linecap="round" stroke-linejoin="round"/>
<path d="M34.9051 26.0843L29.7898 14.4453C29.2624 13.9179 28.5471 13.6216 27.8012 13.6216C27.0553 13.6216 26.3399 13.9179 25.8125 14.4453V27.6875" stroke="black" stroke-width="2" stroke-linecap="round" stroke-linejoin="round"/>
<path d="M20.1875 27.6875V14.4453C19.66 13.9179 18.9447 13.6216 18.1988 13.6216C17.4529 13.6216 16.7376 13.9179 16.2101 14.4453L11.0949 26.0843" stroke="black" stroke-width="2" stroke-linecap="round" stroke-linejoin="round"/>
<path d="M15.5 32.375C18.0888 32.375 20.1875 30.2763 20.1875 27.6875C20.1875 25.0987 18.0888 23 15.5 23C12.9112 23 10.8125 25.0987 10.8125 27.6875C10.8125 30.2763 12.9112 32.375 15.5 32.375Z" stroke="black" stroke-width="2" stroke-linecap="round" stroke-linejoin="round"/>
<path d="M30.5 32.375C33.0888 32.375 35.1875 30.2763 35.1875 27.6875C35.1875 25.0987 33.0888 23 30.5 23C27.9112 23 25.8125 25.0987 25.8125 27.6875C25.8125 30.2763 27.9112 32.375 30.5 32.375Z" stroke="black" stroke-width="2" stroke-linecap="round" stroke-linejoin="round"/>
<path d="M35.1972 35.1971L10.8028 10.8027" stroke="black" stroke-width="2" stroke-linecap="round" stroke-linejoin="round"/>
<path d="M23 40.25C32.5269 40.25 40.25 32.5269 40.25 23C40.25 13.4731 32.5269 5.75 23 5.75C13.4731 5.75 5.75 13.4731 5.75 23C5.75 32.5269 13.4731 40.25 23 40.25Z" stroke="black" stroke-width="2" stroke-miterlimit="10"/>
</g>
<defs>
<clipPath id="clip0_788_983">
<rect width="46" height="46" fill="white"/>
</clipPath>
</defs>
</svg>
